# xmcd CD database file
#
# Track frame offsets:
#	150
#	24724
#	42082
#	73322
#	95105
#	128526
#	141078
#	165751
#	193000
#	210994
#	228618
#	244827
#	268463
#	283687
#	316853
#
# Disc length: 4756 seconds
#
# Revision: 0
# Processed by: cddbd v1.4PL0 Copyright (c) Steve Scherf et al.
# Submitted via: CDex 1.51
#
DISCID=dc12920f
DTITLE=Tom Waits - Tales for the Audience Part 3
DYEAR=1999
DGENRE=Blues
TTITLE0=Gun Street Girl
TTITLE1=Jockey Full Of Burbon
TTITLE2=Hold On
TTITLE3=Chocolate Jesus
TTITLE4=Sixteen Sheells From A 30.06
TTITLE5=Tango Till They're Sore
TTITLE6=Innocent When You Dream
TTITLE7=Tom Traubnert's Blues
TTITLE8=Ol' 55
TTITLE9=House Where Nobody Lives
TTITLE10=Jersey Girl
TTITLE11=What Is He Building?
TTITLE12=Strange Weather
TTITLE13=Get Behind The Mule
TTITLE14=Chocolate Jesus
EXTD=YEAR: 1999
EXTT0=
EXTT1=
EXTT2=
EXTT3=
EXTT4=
EXTT5=
EXTT6=
EXTT7=
EXTT8=
EXTT9=
EXTT10=
EXTT11=
EXTT12=
EXTT13=
EXTT14=
PLAYORDER=
